<svg xmlns="http://www.w3.org/2000/svg" width="16.666" height="16.666" viewBox="0 0 16.666 16.666"><g id="Group_7139" data-name="Group 7139" transform="translate(-506.723 -1699.334)"><g id="Group_4404" data-name="Group 4404" transform="translate(-0.637 -0.637)"><circle id="Ellipse_242" data-name="Ellipse 242" cx="2.686" cy="2.686" r="2.686" transform="translate(513.007 1705.617)" fill="#fff"></circle><path id="Path_10606" data-name="Path 10606" d="M3420.735,1565.362a8.333,8.333,0,1,1,8.333-8.333A8.343,8.343,0,0,1,3420.735,1565.362Zm0-16.358a8.025,8.025,0,1,0,8.025,8.025A8.033,8.033,0,0,0,3420.735,1549Z" transform="translate(-2905.043 151.275)" fill="#fff"></path><path id="Path_10607" data-name="Path 10607" d="M3433.965,1576.2a5.939,5.939,0,1,1,5.939-5.939A5.946,5.946,0,0,1,3433.965,1576.2Zm0-11.57a5.631,5.631,0,1,0,5.631,5.631A5.637,5.637,0,0,0,3433.965,1564.627Z" transform="translate(-2918.272 138.045)" fill="#fff"></path></g></g></svg>