<svg xmlns="http://www.w3.org/2000/svg" width="43.888" height="43.888" viewBox="0 0 43.888 43.888"><g id="Group_4112" data-name="Group 4112" transform="translate(12737.236 -182.425)" opacity="0.6"><circle id="Ellipse_242" data-name="Ellipse 242" cx="2.481" cy="2.481" r="2.481" transform="translate(-12717.772 202.054)" fill="#ba1111"></circle><path id="Path_10606" data-name="Path 10606" d="M3420.1,1564.089a7.7,7.7,0,1,1,7.7-7.7A7.705,7.705,0,0,1,3420.1,1564.089Zm0-15.108a7.412,7.412,0,1,0,7.412,7.411A7.42,7.42,0,0,0,3420.1,1548.981Z" transform="translate(-16135.391 -1351.857)" fill="#ba1111"></path><path id="Path_10607" data-name="Path 10607" d="M3433.511,1575.29A5.485,5.485,0,1,1,3439,1569.8,5.492,5.492,0,0,1,3433.511,1575.29Zm0-10.686a5.2,5.2,0,1,0,5.2,5.2A5.207,5.207,0,0,0,3433.511,1564.6Z" transform="translate(-16148.803 -1365.269)" fill="#ba1111"></path><g id="Group_4049" data-name="Group 4049" transform="translate(-12728.114 191.994)"><g id="Group_4047" data-name="Group 4047"><rect id="Rectangle_719" data-name="Rectangle 719" width="0.285" height="4.198" transform="translate(4.167)" fill="#484848"></rect><rect id="Rectangle_720" data-name="Rectangle 720" width="4.31" height="0.285" transform="translate(0 4.055)" fill="#484848"></rect><rect id="Rectangle_721" data-name="Rectangle 721" width="4.31" height="0.285" transform="translate(21.283 4.055)" fill="#484848"></rect><rect id="Rectangle_722" data-name="Rectangle 722" width="0.285" height="4.198" transform="translate(21.141)" fill="#484848"></rect></g><g id="Group_4048" data-name="Group 4048" transform="translate(0 20.841)"><rect id="Rectangle_723" data-name="Rectangle 723" width="0.285" height="4.198" transform="translate(21.141 0.142)" fill="#484848"></rect><rect id="Rectangle_724" data-name="Rectangle 724" width="4.31" height="0.285" transform="translate(21.283)" fill="#484848"></rect><rect id="Rectangle_725" data-name="Rectangle 725" width="4.31" height="0.285" fill="#484848"></rect><rect id="Rectangle_726" data-name="Rectangle 726" width="0.285" height="4.197" transform="translate(4.167 0.142)" fill="#484848"></rect></g></g><g id="Group_4050" data-name="Group 4050" transform="translate(-12737.236 203.764)"><path id="Path_10608" data-name="Path 10608" d="M3548.683,1598.838h-10.752a.605.605,0,0,1,0-1.211h10.752a.605.605,0,0,1,0,1.211Z" transform="translate(-3505.4 -1597.627)" fill="#484848"></path><path id="Path_10609" data-name="Path 10609" d="M3323.189,1598.838h-10.867a.605.605,0,0,1,0-1.211h10.867a.605.605,0,1,1,0,1.211Z" transform="translate(-3311.717 -1597.627)" fill="#484848"></path></g><g id="Group_4051" data-name="Group 4051" transform="translate(-12715.897 182.425)"><path id="Path_10610" data-name="Path 10610" d="M3463.116,1684.4a.605.605,0,0,1-.6-.605v-10.752a.6.6,0,1,1,1.21,0V1683.8A.605.605,0,0,1,3463.116,1684.4Z" transform="translate(-3462.511 -1640.515)" fill="#484848"></path><path id="Path_10611" data-name="Path 10611" d="M3463.116,1458.911a.605.605,0,0,1-.6-.606v-10.867a.6.6,0,1,1,1.21,0v10.867A.605.605,0,0,1,3463.116,1458.911Z" transform="translate(-3462.511 -1446.833)" fill="#484848"></path></g></g></svg>