<svg xmlns="http://www.w3.org/2000/svg" xmlns:xlink="http://www.w3.org/1999/xlink" width="160" height="80" viewBox="0 0 160 80"><defs><clipPath id="clip-Artboard_3"><rect width="160" height="80"></rect></clipPath></defs><g id="Artboard_3" data-name="Artboard &#x2013; 3" clip-path="url(#clip-Artboard_3)"><g id="Group_5110" data-name="Group 5110" transform="translate(38 1)"><path id="Path_14092" data-name="Path 14092" d="M3691.722,770.193h5.432v-1.985h-7.649v1.985Zm5.506,8.157v-1.985h-5.506v-2.13h4.78v-1.985h-7v6.1Zm-10.8-10.142h-2.405l-2.651,7.143-2.651-7.143h-2.463l4.1,10.214h1.97Zm-13.35,10.142V768.208h-2.231V778.35Zm-5.554-8.084v-2.058h-8.4v2.058h3.086v8.084h2.231v-8.084Zm-9.454,8.084-4.346-10.214h-2.058l-4.347,10.214h2.275c1.485-3.644,1.535-3.783,3.072-7.534,1.564,3.822,1.54,3.777,3.071,7.534Zm-18.885-8.157h5.432v-1.985h-7.649v1.985Zm5.505,8.157v-1.985h-5.505v-2.13h4.78v-1.985h-7v6.1Zm-13.51-6.65c0,.855-.623,1.434-1.71,1.434h-2.26v-2.912h2.217c1.086,0,1.753.492,1.753,1.449Zm2.565,6.65-2.477-3.622a3.151,3.151,0,0,0,2.172-3.144v-.029c0-2.086-1.434-3.347-3.825-3.347h-4.636V778.35h2.231v-3.245h1.753l2.173,3.245Zm-12.062-1.637-1.42-1.434a3.661,3.661,0,0,1-2.666,1.188,3.011,3.011,0,0,1-2.941-3.187v-.029a3,3,0,0,1,2.941-3.159,3.744,3.744,0,0,1,2.594,1.145l1.42-1.637a5.23,5.23,0,0,0-4-1.565,5.155,5.155,0,0,0-5.288,5.245v.028a5.119,5.119,0,0,0,5.2,5.216A5.182,5.182,0,0,0,3621.682,776.713Z" transform="translate(-3612.323 -707.881)" fill="#535353"></path><path id="Path_14093" data-name="Path 14093" d="M3759.4,866.539V862.9h-.79v2.24l-1.7-2.24h-.739v3.639h.79v-2.313l1.763,2.313Zm-7.3-1.523h-.966l.483-1.179Zm1.456,1.523L3752,862.874h-.739l-1.559,3.664h.816l.333-.816h1.539l.333.816Zm-6.361-.515v-1.581h-1.58v.692h.805v.52a1.275,1.275,0,0,1-.753.218,1.09,1.09,0,0,1-1.1-1.154v-.01a1.092,1.092,0,0,1,1.044-1.133,1.342,1.342,0,0,1,.952.369l.5-.608a2,2,0,0,0-1.43-.5,1.868,1.868,0,0,0-1.907,1.881v.01a1.821,1.821,0,0,0,1.914,1.871A2.36,2.36,0,0,0,3747.2,866.024Zm-6.9-1.295a1.088,1.088,0,0,1-1.091,1.134,1.105,1.105,0,0,1-1.1-1.144v-.01a1.088,1.088,0,0,1,1.092-1.133,1.1,1.1,0,0,1,1.1,1.143Zm.838-.01v-.01a1.934,1.934,0,0,0-3.867.01v.01a1.934,1.934,0,0,0,3.867-.01Zm-6.147,1.82v-.728h-1.814V862.9h-.8v3.639Zm-5.357-1.076v-.01c0-.635-.416-.9-1.153-1.092-.63-.161-.786-.239-.786-.479v-.01c0-.177.162-.317.469-.317a1.709,1.709,0,0,1,.946.359l.416-.6a2.108,2.108,0,0,0-1.351-.462,1.139,1.139,0,0,0-1.274,1.1v.011c0,.722.474.925,1.206,1.112.608.156.733.26.733.462v.011c0,.213-.2.343-.525.343a1.67,1.67,0,0,1-1.087-.442l-.473.566a2.316,2.316,0,0,0,1.544.583C3729.081,866.591,3729.632,866.185,3729.632,865.462Zm-9.327-1.31c0,.307-.225.515-.614.515h-.811v-1.044h.8c.39,0,.63.177.63.52Zm.919,2.386-.889-1.3a1.131,1.131,0,0,0,.78-1.128v-.01c0-.748-.515-1.2-1.373-1.2h-1.662v3.639h.8v-1.164h.629l.779,1.164Zm-6.007-1.585V862.9h-.8v2.084c0,.577-.3.874-.785.874s-.785-.307-.785-.9V862.9h-.8v2.079a1.444,1.444,0,0,0,1.575,1.616A1.464,1.464,0,0,0,3715.217,864.954Zm-6.709-.224a1.088,1.088,0,0,1-1.092,1.134,1.105,1.105,0,0,1-1.1-1.144v-.01a1.088,1.088,0,0,1,1.092-1.133,1.105,1.105,0,0,1,1.1,1.143Zm.836-.01v-.01a1.934,1.934,0,0,0-3.866.01v.01a1.934,1.934,0,0,0,3.866-.01Zm-5.939-1.819h-.91l-.884,1.461-.868-1.461h-.935l1.4,2.2v1.435h.8v-1.451Z" transform="translate(-3687.154 -788.971)" fill="#535353"></path><path id="Path_14100" data-name="Path 14100" d="M3823.725,361.8l-18.734,10.815v-3.846l18.734-10.816Zm-18.734,22.353,18.734-10.816v3.846L3804.99,388Zm-3.33,12.974,3.33,1.923v-7.205l22.065-12.739V367.566l-3.331,1.924-22.064,12.738Zm25.4-33.4V352.183l-25.4,14.661v7.692L3795,378.383v14.9l3.33,1.923v-14.9Z" transform="translate(-3768.574 -352.183)" fill="#535353" fill-rule="evenodd"></path></g></g></svg>