<svg xmlns="http://www.w3.org/2000/svg" width="41.988" height="41.994" viewBox="0 0 41.988 41.994"><g data-name="Group 4065" transform="translate(12613.746 -245.932)"><path data-name="Path 10617" d="M1610.345,1578.192a11.979,11.979,0,1,1,11.979-11.978A11.992,11.992,0,0,1,1610.345,1578.192Zm0-23.465a11.487,11.487,0,1,0,11.487,11.487A11.5,11.5,0,0,0,1610.345,1554.727Z" transform="translate(-14203.122 -1299.201)" fill="#bebebe"></path><path data-name="Path 10618" d="M1636.635,1587.365a5.141,5.141,0,1,1-5.141-5.141A5.141,5.141,0,0,1,1636.635,1587.365Z" transform="translate(-14224.271 -1320.353)" fill="#bebebe"></path><rect data-name="Rectangle 727" width="58.889" height="0.491" transform="matrix(0.707, -0.707, 0.707, 0.707, -12613.743, 287.578)" fill="#bebebe"></rect><rect data-name="Rectangle 728" width="0.491" height="58.889" transform="translate(-12613.746 246.282) rotate(-45)" fill="#bebebe"></rect></g></svg>