<svg xmlns="http://www.w3.org/2000/svg" width="62" height="62" viewBox="0 0 62 62"><g data-name="Group 4219" transform="translate(-984 -5761)"><g data-name="Ellipse 256" transform="translate(984 5761)" fill="#fff" stroke="#ba1111" stroke-width="1"><circle cx="31" cy="31" r="31" stroke="none"></circle><circle cx="31" cy="31" r="30.5" fill="none"></circle></g><circle data-name="Ellipse 257" cx="24" cy="24" r="24" transform="translate(991 5768)" fill="#ba1111"></circle><g transform="translate(1001.262 5778.262)"><g data-name="Group 4218" transform="translate(0 0)"><path data-name="Path 12089" d="M22.53,43.186a2.764,2.764,0,0,0-2-.919,2.858,2.858,0,0,0-2.028.913l-1.874,1.868c-.154-.083-.308-.16-.457-.237-.213-.107-.415-.208-.587-.314a20.367,20.367,0,0,1-4.88-4.448,12.015,12.015,0,0,1-1.6-2.526c.486-.445.937-.907,1.376-1.352.166-.166.332-.338.5-.5a2.721,2.721,0,0,0,0-4.1L9.353,29.944c-.184-.184-.374-.374-.552-.563-.356-.368-.729-.747-1.115-1.1A2.807,2.807,0,0,0,5.7,27.406a2.9,2.9,0,0,0-2.016.872l-.012.012L1.656,30.324A4.339,4.339,0,0,0,.369,33.081a10.4,10.4,0,0,0,.759,4.4,25.533,25.533,0,0,0,4.537,7.567,27.907,27.907,0,0,0,9.293,7.276,14.478,14.478,0,0,0,5.219,1.542c.125.006.255.012.374.012a4.468,4.468,0,0,0,3.422-1.471c.006-.012.018-.018.024-.03A13.481,13.481,0,0,1,25.032,51.3c.255-.243.516-.5.771-.765a2.958,2.958,0,0,0,.9-2.052,2.85,2.85,0,0,0-.913-2.034Zm2.123,6.244c-.006,0-.006.006,0,0-.231.249-.468.474-.723.723a15.593,15.593,0,0,0-1.145,1.186,2.859,2.859,0,0,1-2.23.943c-.089,0-.184,0-.273-.006a12.862,12.862,0,0,1-4.626-1.388A26.342,26.342,0,0,1,6.9,44.034a24.075,24.075,0,0,1-4.27-7.11,8.467,8.467,0,0,1-.664-3.712,2.722,2.722,0,0,1,.818-1.761l2.022-2.022a1.348,1.348,0,0,1,.9-.421,1.268,1.268,0,0,1,.866.415l.018.018c.362.338.706.688,1.067,1.061.184.19.374.38.563.575L9.845,32.7a1.132,1.132,0,0,1,0,1.838c-.172.172-.338.344-.51.51-.5.51-.973.984-1.488,1.447-.012.012-.024.018-.03.03a1.21,1.21,0,0,0-.308,1.346l.018.053a13,13,0,0,0,1.915,3.125l.006.006a21.766,21.766,0,0,0,5.266,4.792,8.1,8.1,0,0,0,.729.4c.213.107.415.208.587.314.024.012.047.03.071.042a1.286,1.286,0,0,0,.587.148,1.268,1.268,0,0,0,.9-.409l2.028-2.028a1.342,1.342,0,0,1,.9-.445,1.208,1.208,0,0,1,.854.433l.012.012,3.268,3.268A1.173,1.173,0,0,1,24.653,49.431Z" transform="translate(-0.344 -25.781)" fill="#fff"></path><path data-name="Path 12090" d="M245.6,87.513a7.632,7.632,0,0,1,6.215,6.215.8.8,0,0,0,.789.664,1.059,1.059,0,0,0,.136-.012.8.8,0,0,0,.658-.925,9.228,9.228,0,0,0-7.519-7.519.8.8,0,0,0-.925.652A.792.792,0,0,0,245.6,87.513Z" transform="translate(-230.439 -80.83)" fill="#fff"></path><path data-name="Path 12091" d="M262.087,12.394A15.2,15.2,0,0,0,249.705.012a.8.8,0,1,0-.261,1.577A13.573,13.573,0,0,1,260.51,12.655a.8.8,0,0,0,.789.664,1.058,1.058,0,0,0,.136-.012A.786.786,0,0,0,262.087,12.394Z" transform="translate(-234.043 0)" fill="#fff"></path></g></g></g></svg>