<svg xmlns="http://www.w3.org/2000/svg" width="68.812" height="68.811" viewBox="0 0 68.812 68.811"><g data-name="Group 4067" transform="translate(12737.236 -182.425)"><circle data-name="Ellipse 242" cx="3.89" cy="3.89" r="3.89" transform="translate(-12706.72 213.202)" fill="#ba1111"></circle><path data-name="Path 10606" d="M3424.469,1572.83a12.067,12.067,0,1,1,12.067-12.067A12.081,12.081,0,0,1,3424.469,1572.83Zm0-23.687a11.62,11.62,0,1,0,11.621,11.62A11.633,11.633,0,0,0,3424.469,1549.143Z" transform="translate(-16127.3 -1343.671)" fill="#1e1e1e"></path><path data-name="Path 10607" d="M3436.626,1581.52a8.6,8.6,0,1,1,8.6-8.6A8.61,8.61,0,0,1,3436.626,1581.52Zm0-16.754a8.154,8.154,0,1,0,8.154,8.154A8.163,8.163,0,0,0,3436.626,1564.766Z" transform="translate(-16139.456 -1355.828)" fill="#1e1e1e"></path><g data-name="Group 4049" transform="translate(-12722.935 197.429)"><g data-name="Group 4047"><rect data-name="Rectangle 719" width="0.446" height="6.581" transform="translate(6.534)" fill="#ba1111"></rect><rect data-name="Rectangle 720" width="6.757" height="0.446" transform="translate(0 6.358)" fill="#ba1111"></rect><rect data-name="Rectangle 721" width="6.757" height="0.446" transform="translate(33.369 6.358)" fill="#ba1111"></rect><rect data-name="Rectangle 722" width="0.446" height="6.581" transform="translate(33.146)" fill="#ba1111"></rect></g><g data-name="Group 4048" transform="translate(0 32.676)"><rect data-name="Rectangle 723" width="0.446" height="6.581" transform="translate(33.146 0.223)" fill="#ba1111"></rect><rect data-name="Rectangle 724" width="6.757" height="0.446" transform="translate(33.369)" fill="#ba1111"></rect><rect data-name="Rectangle 725" width="6.757" height="0.446" fill="#ba1111"></rect><rect data-name="Rectangle 726" width="0.446" height="6.581" transform="translate(6.534 0.223)" fill="#ba1111"></rect></g></g><g data-name="Group 4050" transform="translate(-12737.236 215.881)"><path data-name="Path 10608" d="M3555.132,1599.525h-16.858a.949.949,0,0,1,0-1.9h16.858a.949.949,0,1,1,0,1.9Z" transform="translate(-3487.27 -1597.627)" fill="#1e1e1e"></path><path data-name="Path 10609" d="M3329.7,1599.525h-17.039a.949.949,0,0,1,0-1.9H3329.7a.949.949,0,1,1,0,1.9Z" transform="translate(-3311.717 -1597.627)" fill="#1e1e1e"></path></g><g data-name="Group 4051" transform="translate(-12703.779 182.425)"><path data-name="Path 10610" d="M3463.46,1691.2a.949.949,0,0,1-.949-.949V1673.39a.949.949,0,1,1,1.9,0v16.857A.949.949,0,0,1,3463.46,1691.2Z" transform="translate(-3462.511 -1622.385)" fill="#1e1e1e"></path><path data-name="Path 10611" d="M3463.46,1465.77a.949.949,0,0,1-.949-.949v-17.038a.949.949,0,1,1,1.9,0v17.038A.949.949,0,0,1,3463.46,1465.77Z" transform="translate(-3462.511 -1446.833)" fill="#1e1e1e"></path></g></g></svg>