<svg xmlns="http://www.w3.org/2000/svg" width="47" height="47.006" viewBox="0 0 47 47.006"><g data-name="Group 4062" transform="translate(12613.746 -245.932)" opacity="0.59"><path data-name="Path 10617" d="M1611.775,1581.052a13.408,13.408,0,1,1,13.408-13.408A13.423,13.423,0,0,1,1611.775,1581.052Zm0-26.266a12.858,12.858,0,1,0,12.858,12.858A12.872,12.872,0,0,0,1611.775,1554.785Z" transform="translate(-14202.049 -1298.115)" fill="#bebebe"></path><path data-name="Path 10618" d="M1637.863,1587.979a5.755,5.755,0,1,1-5.755-5.755A5.755,5.755,0,0,1,1637.863,1587.979Z" transform="translate(-14222.382 -1318.45)" fill="#bebebe"></path><rect data-name="Rectangle 727" width="65.918" height="0.55" transform="matrix(0.707, -0.707, 0.707, 0.707, -12613.743, 292.549)" fill="#bebebe"></rect><rect data-name="Rectangle 728" width="0.55" height="65.918" transform="translate(-12613.746 246.324) rotate(-45)" fill="#bebebe"></rect></g></svg>