<svg xmlns="http://www.w3.org/2000/svg" width="85.57" height="25.981" viewBox="0 0 85.57 25.981"><path id="logitecg-5" d="M0,18.374V.381H3.161V18.374ZM11.251,5.32A6.7,6.7,0,1,0,17.966,12,6.7,6.7,0,0,0,11.251,5.32Zm-.037,3.05A3.62,3.62,0,1,1,8.652,9.445,3.65,3.65,0,0,1,11.214,8.37ZM26.027,5.32a6.729,6.729,0,1,0,6.832,6.669A5.046,5.046,0,0,0,31.83,8.56l.876-.3V5.694H28.217a6.773,6.773,0,0,0-2.19-.374Zm-.038,3.05a3.62,3.62,0,1,1-2.562,1.075A3.65,3.65,0,0,1,25.989,8.37Zm3.659,10.884a3.648,3.648,0,1,1-7.3,0h-3.2a6.622,6.622,0,0,0,6.888,6.722,6.629,6.629,0,0,0,6.8-6.722Zm4.478-.88V5.694h3.161v12.68Zm6.23,0V8.534H38.661V5.694h1.695V1.8h3.161V5.694h1.741v2.84H43.517v9.839ZM37.793,2.093A2.093,2.093,0,1,1,35.7,0a2.093,2.093,0,0,1,2.093,2.093Zm14.57,3.219a6.564,6.564,0,0,0-6.7,6.805,6.367,6.367,0,0,0,6.762,6.616,7.5,7.5,0,0,0,5.746-2.405l-2.113-2.116a5.628,5.628,0,0,1-3.593,1.721A3.417,3.417,0,0,1,49.008,13.3h9.849v-.87c0-3.473-2.01-7.117-6.493-7.117Zm-.1,2.783a3.14,3.14,0,0,1,3.278,2.64H48.922a3.3,3.3,0,0,1,3.341-2.64Zm14.5,10.64A6.714,6.714,0,1,1,66.75,5.308a6.951,6.951,0,0,1,5.419,2.531l-2.205,2.195a4.511,4.511,0,0,0-3.229-1.65,3.559,3.559,0,0,0-3.643,3.622,3.585,3.585,0,0,0,3.619,3.671,4.5,4.5,0,0,0,3.251-1.648l2.227,2.194a6.927,6.927,0,0,1-5.425,2.511h0Zm6.575-.352V.335H76.5V6.966A4.831,4.831,0,0,1,80.343,5.31c3.31,0,5.227,2.46,5.227,5.607v7.467H82.408v-6.99A2.668,2.668,0,0,0,79.633,8.4,2.916,2.916,0,0,0,76.5,11.558v6.825H73.338Z"></path></svg>