<svg xmlns="http://www.w3.org/2000/svg" width="192.788" height="53" viewBox="0 0 192.788 53">
  <g id="Group_4234" data-name="Group 4234" transform="translate(11945 -8739)">
    <path id="Path_10573" data-name="Path 10573" d="M6,0H45a6,6,0,0,1,6,6V47a6,6,0,0,1-6,6H6a6,6,0,0,1-6-6V6A6,6,0,0,1,6,0Z" transform="translate(-11945 8739)" fill="#ba1111"/>
    <g id="Group_3874" data-name="Group 3874" transform="translate(-12236 8433.193)">
      <path id="Path_10555" data-name="Path 10555" d="M507.852,334.5h-3.2a.7.7,0,0,1-.792-.792V311.054a.7.7,0,0,1,.792-.791h9.2a6.212,6.212,0,0,1,4.561,1.6,6.1,6.1,0,0,1,1.621,4.543v3.619a6.1,6.1,0,0,1-1.621,4.543,6.212,6.212,0,0,1-4.561,1.6H509.1q-.452,0-.452.415v7.124A.7.7,0,0,1,507.852,334.5Zm1.206-12.516h4a2.3,2.3,0,0,0,1.7-.509,2.369,2.369,0,0,0,.49-1.678v-3.166a2.434,2.434,0,0,0-.49-1.715,2.3,2.3,0,0,0-1.7-.509h-4a.367.367,0,0,0-.415.415v6.748A.367.367,0,0,0,509.058,321.987Z" transform="translate(-148.856 9.737)" fill="#fff"/>
      <path id="Path_10556" data-name="Path 10556" d="M533.581,334.5h-3.619q-.677,0-.452-.792l5.956-22.656a1.082,1.082,0,0,1,1.131-.791h5.014a1.015,1.015,0,0,1,1.131.791l5.956,22.656q.225.792-.452.792h-3.619a.739.739,0,0,1-.566-.17,1.278,1.278,0,0,1-.225-.622l-1.055-4.146h-7.351l-1.056,4.146a1.16,1.16,0,0,1-.244.622A.75.75,0,0,1,533.581,334.5Zm5.466-19.678-2.714,10.895h5.579L539.2,314.824Z" transform="translate(-157.453 9.737)" fill="#fff"/>
      <path id="Path_10557" data-name="Path 10557" d="M564.85,334.5h-3.129a.7.7,0,0,1-.792-.792V311.054a.7.7,0,0,1,.792-.791h2.827a1.064,1.064,0,0,1,1.055.528l7.615,14.287h.151V311.054a.7.7,0,0,1,.792-.791h3.129a.7.7,0,0,1,.791.791v22.656a.7.7,0,0,1-.791.792h-2.752a1.26,1.26,0,0,1-1.206-.755l-7.539-14.023h-.151v13.985A.7.7,0,0,1,564.85,334.5Z" transform="translate(-167.929 9.737)" fill="#fff"/>
      <path id="Path_10558" data-name="Path 10558" d="M598.362,334.5H595.2q-.829,0-.829-.792V314.824a.367.367,0,0,0-.415-.415h-4.3a.7.7,0,0,1-.792-.791v-2.564a.7.7,0,0,1,.792-.791H603.9a.7.7,0,0,1,.792.791v2.564a.7.7,0,0,1-.792.791h-4.3q-.452,0-.452.415v18.886A.7.7,0,0,1,598.362,334.5Z" transform="translate(-177.862 9.737)" fill="#fff"/>
      <path id="Path_10559" data-name="Path 10559" d="M618.9,334.5h-3.2a.7.7,0,0,1-.792-.792V311.054a.7.7,0,0,1,.792-.791h3.2a.7.7,0,0,1,.791.791v8.859c0,.277.151.414.453.414h6.371a.366.366,0,0,0,.415-.414v-8.859a.7.7,0,0,1,.792-.791h3.2a.7.7,0,0,1,.792.791v22.656a.7.7,0,0,1-.792.792h-3.2a.7.7,0,0,1-.792-.792V324.89a.367.367,0,0,0-.415-.415h-6.371c-.3,0-.453.139-.453.415v8.821A.7.7,0,0,1,618.9,334.5Z" transform="translate(-186.904 9.737)" fill="#fff"/>
      <path id="Path_10560" data-name="Path 10560" d="M647.044,334.5h-3.62q-.677,0-.452-.792l5.956-22.656a1.082,1.082,0,0,1,1.131-.791h5.014a1.014,1.014,0,0,1,1.131.791l5.956,22.656q.226.792-.452.792H658.09a.739.739,0,0,1-.566-.17,1.277,1.277,0,0,1-.226-.622l-1.055-4.146h-7.351l-1.055,4.146a1.166,1.166,0,0,1-.245.622A.749.749,0,0,1,647.044,334.5Zm5.466-19.678L649.8,325.719h5.579l-2.715-10.895Z" transform="translate(-196.916 9.737)" fill="#fff"/>
      <path id="Path_10561" data-name="Path 10561" d="M678.389,334.5h-3.205a.7.7,0,0,1-.792-.792V311.054a.7.7,0,0,1,.792-.791h8.973a6.3,6.3,0,0,1,4.6,1.62,6.09,6.09,0,0,1,1.658,4.561v2.941q0,4.26-3.355,5.655v.151l4.034,8.407q.34.9-.64.9H687.4a2.336,2.336,0,0,1-.98-.151,1.119,1.119,0,0,1-.49-.641l-3.769-8.143h-2.526c-.3,0-.452.139-.452.414v7.728A.7.7,0,0,1,678.389,334.5Zm1.205-12.78h3.695a2.6,2.6,0,0,0,1.772-.508,2.109,2.109,0,0,0,.565-1.64v-2.941a2.228,2.228,0,0,0-.565-1.7,2.531,2.531,0,0,0-1.772-.528h-3.695a.367.367,0,0,0-.414.415v6.484A.366.366,0,0,0,679.594,321.723Z" transform="translate(-207.392 9.737)" fill="#fff"/>
    </g>
    <path id="Path_10572" data-name="Path 10572" d="M822.331,637.674a22.788,22.788,0,0,0,7.51,9.609c1.533,1.053,3.171,1.951,4.749,2.935,1.578-.985,3.216-1.882,4.749-2.935a21.409,21.409,0,0,0,5.05-5.185c4.271-5.774,5.437-14.624,3.454-21.455l-.066-.227-.233-.042c-3.472-.63-10.207-1.841-12.954-4.263-2.747,2.422-9.482,3.632-12.954,4.263l-.232.042-.066.227a26.073,26.073,0,0,0-.761,10.047,17.984,17.984,0,0,0-.621,5.714,28.728,28.728,0,0,1-.348-16.263l.377-1.3,1.331-.242c4.313-.782,9.812-1.569,13.042-4.786l.234-.232.233.232c3.23,3.217,8.73,4,13.042,4.786l1.331.242.377,1.3c2.14,7.373.871,16.8-3.735,23.029a23.244,23.244,0,0,1-5.479,5.6,38.031,38.031,0,0,1-5.554,3.343l-.215.1-.215-.1a38.025,38.025,0,0,1-5.554-3.343,23.243,23.243,0,0,1-5.479-5.6q-.312-.422-.6-.863a22.474,22.474,0,0,1-1.748-3.191c-1.321-8.248,2.685-18.093,13.881-18.642a11.8,11.8,0,0,1,9.241,3.768c-1.885.264-4.334.568-5.848,2.048.178.346.664.456,1.354.952a7.556,7.556,0,0,1,2.866,4.074c.541,1.869-.149,1.015,1.167,3.522.48.916,1.786,2.635,1.844,2.85-.471.494-4.127,1.789-5.048,2.064-.593.177-1.362.3-1.883.481-.522,1.255-.147,1.16-.184,2.328-.918-.264-1.69-2.784-5.561-2.824-1.029-.011-1.7.27-2.675.306a16.924,16.924,0,0,0,1.435-4.01,12.885,12.885,0,0,1,.87-3.957c.275-.432.139-.225.429-.367-.1,1.25-.57,2.461.061,4.157,1.034,2.779,3.414,3.317,6.2,2.79a10.048,10.048,0,0,0,3.488-1.31l-2.122-4.5c-.509-1.246-.942-.7-2.384-.937-.876-.145-1.848-.559-2.042-1.289.756-1.077,3.339-1.221,4.979.185.426.365.738.941,1.111,1.184a6.3,6.3,0,0,0-1.771-3.254,7.583,7.583,0,0,0-3.142-1.98c.167-1.446,2.085-2.835,2.8-3.087a5.951,5.951,0,0,0-1.863-.694,12.713,12.713,0,0,0-6.943.165,13.024,13.024,0,0,0-6.112,4.138,14.037,14.037,0,0,0-1.547,2.4c-1.174,2.424-1.295,5.622-1.262,8m5.69,3.312c2.8-4.2-4.944-10.869,5.319-14.355C823.574,632.684,832.987,637.393,828.021,640.986Z" transform="translate(-12753.596 8132.418)" fill="#fff" fill-rule="evenodd"/>
  </g>
</svg>
